<svg xmlns="http://www.w3.org/2000/svg" width="805" height="600">
    <rect width="805" height="600" x="0" y="0" fill="#FFFFFF" id="backgorund" />
    <clipPath id="serieClipPath"><rect x="0" y="0" width="805" height="600" /></clipPath>
    <g transform="translate(0,0)" clip-path="url(#serieClipPath)">
        <g transform="translate(305, 315)">
            <g id="axes">
                <circle r="257" fill="none" stroke="LightGray" class="grid" id="90" />
                <circle r="228" fill="none" stroke="LightGray" class="grid" id="80" />
                <circle r="200" fill="none" stroke="LightGray" class="grid" id="70" />
                <circle r="171" fill="none" stroke="LightGray" class="grid" id="60" />
                <circle r="143" fill="none" stroke="LightGray" class="grid" id="50" />
                <circle r="114" fill="none" stroke="LightGray" class="grid" id="40" />
                <circle r="86" fill="none" stroke="LightGray" class="grid" id="30" />
                <circle r="57" fill="none" stroke="LightGray" class="grid" id="20" />
                <circle r="29" fill="none" stroke="LightGray" class="grid" id="10" />
                <circle r="0" fill="none" stroke="LightGray" class="grid" id="0" />
                <g>
                    <line x1="0" y1="0" x2="1.7451216887849784e-14" y2="-285" stroke="black" />
                    <text text-anchor="middle" dy="0.35em" x="1.806354028742346e-14" y="-295" font-family="Arial, sans-serif" font-size="12">SprintSpeed</text>
                </g>
                <g>
                    <line x1="0" y1="0" x2="102.95387486333861" y2="-265.7545853802414" stroke="black" />
                    <text text-anchor="middle" dy="0.35em" x="106.56629152521015" y="-275.07930767428496" font-family="Arial, sans-serif" font-size="12">Agility</text>
                </g>
                <g>
                    <line x1="0" y1="0" x2="192.0032584392688" y2="-210.61754140788784" stroke="black" />
                    <text text-anchor="middle" dy="0.35em" x="198.74021487573438" y="-218.00763058009443" font-family="Arial, sans-serif" font-size="12">Reactions</text>
                </g>
                <g>
                    <line x1="0" y1="0" x2="255.12153803619276" y2="-127.0354313963134" stroke="black" />
                    <text text-anchor="middle" dy="0.35em" x="264.07317094974337" y="-131.4928149540788" font-family="Arial, sans-serif" font-size="12">Balance</text>
                </g>
                <g>
                    <line x1="0" y1="0" x2="283.78424024408486" y2="-26.296482447041054" stroke="black" />
                    <text text-anchor="middle" dy="0.35em" x="293.7415820070352" y="-27.219166041674075" font-family="Arial, sans-serif" font-size="12">ShotPower</text>
                </g>
                <g>
                    <line x1="0" y1="0" x2="274.12030830425346" y2="77.99395217054364" stroke="black" />
                    <text text-anchor="middle" dy="0.35em" x="283.73856473598164" y="80.73058207126446" font-family="Arial, sans-serif" font-size="12">Jumping</text>
                </g>
                <g>
                    <line x1="0" y1="0" x2="227.43490977486826" y2="171.75087136808804" stroke="black" />
                    <text text-anchor="middle" dy="0.35em" x="235.41508204767064" y="177.7772177318806" font-family="Arial, sans-serif" font-size="12">Stamina</text>
                </g>
                <g>
                    <line x1="0" y1="0" x2="150.03316642004634" y2="242.31188368294005" stroke="black" />
                    <text text-anchor="middle" dy="0.35em" x="155.2974880488199" y="250.81405504023618" font-family="Arial, sans-serif" font-size="12">Strength</text>
                </g>
                <g>
                    <line x1="0" y1="0" x2="52.36861257772254" y2="280.147333409912" stroke="black" />
                    <text text-anchor="middle" dy="0.35em" x="54.20610775588824" y="289.977064406751" font-family="Arial, sans-serif" font-size="12">LongShots</text>
                </g>
                <g>
                    <line x1="0" y1="0" x2="-52.36861257772251" y2="280.147333409912" stroke="black" />
                    <text text-anchor="middle" dy="0.35em" x="-54.20610775588821" y="289.977064406751" font-family="Arial, sans-serif" font-size="12">Aggression</text>
                </g>
                <g>
                    <line x1="0" y1="0" x2="-150.03316642004646" y2="242.31188368294002" stroke="black" />
                    <text text-anchor="middle" dy="0.35em" x="-155.29748804882001" y="250.81405504023616" font-family="Arial, sans-serif" font-size="12">Interceptions</text>
                </g>
                <g>
                    <line x1="0" y1="0" x2="-227.43490977486826" y2="171.75087136808807" stroke="black" />
                    <text text-anchor="middle" dy="0.35em" x="-235.41508204767064" y="177.77721773188063" font-family="Arial, sans-serif" font-size="12">Positioning</text>
                </g>
                <g>
                    <line x1="0" y1="0" x2="-274.12030830425346" y2="77.99395217054366" stroke="black" />
                    <text text-anchor="middle" dy="0.35em" x="-283.73856473598164" y="80.73058207126451" font-family="Arial, sans-serif" font-size="12">Vision</text>
                </g>
                <g>
                    <line x1="0" y1="0" x2="-283.78424024408486" y2="-26.296482447040958" stroke="black" />
                    <text text-anchor="middle" dy="0.35em" x="-293.7415820070352" y="-27.219166041673976" font-family="Arial, sans-serif" font-size="12">Penalties</text>
                </g>
                <g>
                    <line x1="0" y1="0" x2="-255.12153803619273" y2="-127.0354313963135" stroke="black" />
                    <text text-anchor="middle" dy="0.35em" x="-264.07317094974337" y="-131.49281495407888" font-family="Arial, sans-serif" font-size="12">StandingTackle</text>
                </g>
                <g>
                    <line x1="0" y1="0" x2="-192.00325843926876" y2="-210.61754140788787" stroke="black" />
                    <text text-anchor="middle" dy="0.35em" x="-198.74021487573435" y="-218.00763058009446" font-family="Arial, sans-serif" font-size="12">Marking</text>
                </g>
                <g>
                    <line x1="0" y1="0" x2="-102.9538748633386" y2="-265.7545853802414" stroke="black" />
                    <text text-anchor="middle" dy="0.35em" x="-106.56629152521013" y="-275.07930767428496" font-family="Arial, sans-serif" font-size="12">SlidingTackle</text>
                </g>
                <g id="y axis" fill="none" font-size="10" font-family="sans-serif" text-anchor="end" transform="translate(0, -285)">
                    <path class="domain" stroke="currentColor" d="M-6,0.5H0.5V285.5H-6" />
                    <g class="tick" opacity="1" transform="translate(0,18.5)">
                        <line stroke="currentColor" x2="-6" />
                        <text fill="currentColor" x="-9" dy="0.32em">90</text>
                    </g>
                    <g class="tick" opacity="1" transform="translate(0,47.5)">
                        <line stroke="currentColor" x2="-6" />
                        <text fill="currentColor" x="-9" dy="0.32em">80</text>
                    </g>
                    <g class="tick" opacity="1" transform="translate(0,77.5)">
                        <line stroke="currentColor" x2="-6" />
                        <text fill="currentColor" x="-9" dy="0.32em">70</text>
                    </g>
                    <g class="tick" opacity="1" transform="translate(0,107.5)">
                        <line stroke="currentColor" x2="-6" />
                        <text fill="currentColor" x="-9" dy="0.32em">60</text>
                    </g>
                    <g class="tick" opacity="1" transform="translate(0,137.5)">
                        <line stroke="currentColor" x2="-6" />
                        <text fill="currentColor" x="-9" dy="0.32em">50</text>
                    </g>
                    <g class="tick" opacity="1" transform="translate(0,166.5)">
                        <line stroke="currentColor" x2="-6" />
                        <text fill="currentColor" x="-9" dy="0.32em">40</text>
                    </g>
                    <g class="tick" opacity="1" transform="translate(0,196.5)">
                        <line stroke="currentColor" x2="-6" />
                        <text fill="currentColor" x="-9" dy="0.32em">30</text>
                    </g>
                    <g class="tick" opacity="1" transform="translate(0,226.5)">
                        <line stroke="currentColor" x2="-6" />
                        <text fill="currentColor" x="-9" dy="0.32em">20</text>
                    </g>
                    <g class="tick" opacity="1" transform="translate(0,255.5)">
                        <line stroke="currentColor" x2="-6" />
                        <text fill="currentColor" x="-9" dy="0.32em">10</text>
                    </g>
                    <g class="tick" opacity="1" transform="translate(0,285.5)">
                        <line stroke="currentColor" x2="-6" />
                        <text fill="currentColor" x="-9" dy="0.32em">0</text>
                    </g>
                </g>
            </g>
            <g id="radars">
                <g id="0">
                    <path
                        d="M93.56159154247263,-241.51030741572816C124.37141340862432,-234.11504482922624,157.7903154462182,-220.26724860168696,182.57151942821702,-200.27141656679862C207.5406180345423,-180.12397328045444,232.88694383517836,-150.55377824146194,242.5892519572219,-120.79509441544188C252.23720629418588,-91.20312319889385,250.69470866188723,-51.62660712971512,240.96767066339834,-22.32894299011909C231.5163225881989,6.1383480409865925,199.68010615943285,27.336202516497885,186.59417477552688,53.090620073984084C174.91117569729047,76.08392698943081,179.57172516220717,108.55675687938323,163.59353159244912,123.54010045774754C147.24432543693513,138.87135627162255,106.9821865137917,125.42603892121855,88.44060336339577,142.8364788025752C64.73677136535338,165.09424064589874,67.03429940493784,261.56389520924085,49.244870774840855,263.43679071528567C29.97937046868721,265.4650890769347,-12.554056490002955,173.9116815625899,-25.173683940870106,134.66731465669454C-34.51527735572164,105.61693889200116,-17.147023966885445,61.64115156958454,-33.16522626127342,53.56367955096569C-58.908181916771106,40.58232245718746,-176.69870926633726,172.40265566216777,-213.8686169111042,161.50608254964075C-239.29432842206052,154.05238836602985,-257.553281236401,103.18258567465399,-257.7692723703155,73.34168133931827C-257.99042753960515,42.787324174579396,-239.60253570824474,-0.9100014385583302,-213.0871137271374,-19.74542892514653C-181.95236209119253,-41.86223163602246,-90.95352754318307,-18.653940933523245,-71.61306330840497,-35.65906846212308C-62.049829763398,-44.06755359694198,-70.59929092365799,-63.8360251654459,-63.32739050277637,-69.46683821874197C-55.87084188396406,-75.24062895641201,-36.38527530108325,-60.81088403094058,-26.731883297849325,-69.00294497592233C-5.4417856254653305,-87.07014639055006,-28.672179559113516,-221.26875655042724,0,-245C20.793682351069645,-262.2104090332216,63.46227450820894,-248.7350279645767,93.56159154247263,-241.51030741572816"
                        stroke="#fdbe70"
                        fill="#fdbe70"
                        fill-opacity="0.5"
                    />
                    <g id="dots">
                        <circle cx="1.5001923289555078e-14" cy="-245" r="1" stroke="none" fill="#fdbe70" />
                        <circle cx="93.56159154247264" cy="-241.51030741572816" r="1" stroke="none" fill="#fdbe70" />
                        <circle cx="182.57151942821702" cy="-200.27141656679862" r="1" stroke="none" fill="#fdbe70" />
                        <circle cx="242.5892519572219" cy="-120.79509441544187" r="1" stroke="none" fill="#fdbe70" />
                        <circle cx="240.96767066339837" cy="-22.32894299011907" r="1" stroke="none" fill="#fdbe70" />
                        <circle cx="186.59417477552688" cy="53.09062007398409" r="1" stroke="none" fill="#fdbe70" />
                        <circle cx="163.5935315924491" cy="123.54010045774754" r="1" stroke="none" fill="#fdbe70" />
                        <circle cx="88.44060336339574" cy="142.8364788025752" r="1" stroke="none" fill="#fdbe70" />
                        <circle cx="49.24487077484084" cy="263.43679071528567" r="1" stroke="none" fill="#fdbe70" />
                        <circle cx="-25.173683940870117" cy="134.66731465669454" r="1" stroke="none" fill="#fdbe70" />
                        <circle cx="-33.165226261273425" cy="53.56367955096569" r="1" stroke="none" fill="#fdbe70" />
                        <circle cx="-213.8686169111042" cy="161.50608254964072" r="1" stroke="none" fill="#fdbe70" />
                        <circle cx="-257.7692723703155" cy="73.34168133931826" r="1" stroke="none" fill="#fdbe70" />
                        <circle cx="-213.0871137271374" cy="-19.745428925146545" r="1" stroke="none" fill="#fdbe70" />
                        <circle cx="-71.61306330840497" cy="-35.65906846212309" r="1" stroke="none" fill="#fdbe70" />
                        <circle cx="-63.32739050277637" cy="-69.46683821874197" r="1" stroke="none" fill="#fdbe70" />
                        <circle cx="-26.731883297849322" cy="-69.00294497592233" r="1" stroke="none" fill="#fdbe70" />
                    </g>
                </g>
                <g id="1">
                    <path
                        d="M89.58793321441394,-231.25311289228023C120.77648379273896,-221.70191340957402,169.0666607399742,-224.51958045873553,184.59260635915666,-202.48844331846058C201.19293709915078,-178.93276612641395,164.58564268781572,-118.79680151511637,179.03265827101248,-89.14767115530766C193.33270944328396,-59.80015097600186,256.78781091761897,-53.344508146445015,269.8439617759543,-25.004725414554848C282.2010006944965,1.817559496271139,272.36765629444534,44.6903497749135,260.65474929983395,74.16267030953446C249.0411123365989,103.38520501510803,224.5760017470413,131.60104935890814,200.30232404734014,151.26129373119332C176.88531282954884,170.22768888177185,143.3318661416039,173.60390747475668,118.44723664740503,191.29885553916318C92.60791848262967,209.6726630757377,72.774839782995,260.6667413706041,48.693622221391145,260.487871416234C22.425085928654266,260.29275454242855,-17.85951140394986,209.50323266094398,-33.07491320698262,176.93515794310233C-47.624291304720536,145.79268539329362,-23.60613675732482,81.25861180709556,-43.693869518820534,70.56802226555797C-70.88841342018718,56.09522386313699,-189.9133080623425,177.52431661925803,-216.2626685929449,163.31398645877852C-235.05641430429594,153.17843378757712,-220.73368668805477,95.87968294335467,-225.06720050243965,64.03713967686745C-229.1349694262209,34.14728273822926,-254.70295971156807,-3.9756726319890663,-240.96767066339837,-22.328942990118975C-222.2507053776584,-47.33879338119566,-108.35759529418004,-27.09296887446095,-78.77436963924548,-39.22497530833539C-65.69907917326643,-44.58711904169041,-63.20447726277874,-55.42964089767461,-53.895651491724564,-59.120713377652734C-44.83930858230234,-62.711673065195356,-31.919579141933895,-53.780276028019415,-23.8419499683521,-61.54316714068749C-3.0957101218523073,-81.48104711324133,-29.018337287719188,-240.18891164958544,0,-259C19.92667553403845,-271.9174339068516,59.272083373370286,-240.53705600442999,89.58793321441394,-231.25311289228023"
                        stroke="#8f0f5d"
                        fill="#8f0f5d"
                        fill-opacity="0.5"
                    />
                    <g id="dots">
                        <circle cx="1.5859176048958224e-14" cy="-259" r="1" stroke="none" fill="#8f0f5d" />
                        <circle cx="89.58793321441395" cy="-231.25311289228023" r="1" stroke="none" fill="#8f0f5d" />
                        <circle cx="184.59260635915666" cy="-202.48844331846058" r="1" stroke="none" fill="#8f0f5d" />
                        <circle cx="179.03265827101248" cy="-89.14767115530765" r="1" stroke="none" fill="#8f0f5d" />
                        <circle cx="269.84396177595437" cy="-25.004725414554827" r="1" stroke="none" fill="#8f0f5d" />
                        <circle cx="260.65474929983395" cy="74.16267030953448" r="1" stroke="none" fill="#8f0f5d" />
                        <circle cx="200.3023240473401" cy="151.26129373119332" r="1" stroke="none" fill="#8f0f5d" />
                        <circle cx="118.447236647405" cy="191.29885553916318" r="1" stroke="none" fill="#8f0f5d" />
                        <circle cx="48.69362222139113" cy="260.487871416234" r="1" stroke="none" fill="#8f0f5d" />
                        <circle cx="-33.074913206982636" cy="176.93515794310233" r="1" stroke="none" fill="#8f0f5d" />
                        <circle cx="-43.69386951882054" cy="70.56802226555797" r="1" stroke="none" fill="#8f0f5d" />
                        <circle cx="-216.2626685929449" cy="163.3139864587785" r="1" stroke="none" fill="#8f0f5d" />
                        <circle cx="-225.06720050243965" cy="64.03713967686744" r="1" stroke="none" fill="#8f0f5d" />
                        <circle cx="-240.96767066339837" cy="-22.32894299011899" r="1" stroke="none" fill="#8f0f5d" />
                        <circle cx="-78.77436963924548" cy="-39.224975308335395" r="1" stroke="none" fill="#8f0f5d" />
                        <circle cx="-53.895651491724564" cy="-59.120713377652734" r="1" stroke="none" fill="#8f0f5d" />
                        <circle cx="-23.841949968352097" cy="-61.54316714068749" r="1" stroke="none" fill="#8f0f5d" />
                    </g>
                </g>
                <g id="2">
                    <path
                        d="M98.98021653527992,-255.4973908567935C129.14219702965076,-245.69032137541043,161.3705876024541,-223.09911168123006,180.55043249727734,-198.05438981513663C199.50382002994522,-173.30537219904176,206.160863772241,-136.90441572790232,213.9440266338599,-106.53146703059265C221.27739328622198,-77.91379924297208,234.39458618643212,-46.48282148186015,227.02739219526785,-21.03718595763286C219.47215507681267,5.05793387305086,174.58123436958067,21.112045412130005,167.3576619120705,47.61736027254242C160.0475867231285,74.44007793418272,197.3704511380585,126.14149183591192,184.34197950173535,139.2086010036082C170.0264562288476,153.56657871743266,97.27687849311829,104.24077939208992,73.7005028028298,119.03039900214598C49.8441021950409,133.99568013310645,61.11654700585194,225.26205147462244,42.99738716907746,230.01570532603301C25.892059605651948,234.50337511779054,-13.048440032854062,183.20805969688527,-29.39992285065122,157.2756959494243C-43.28393139858933,135.2565822121606,-35.81331204988054,95.49955112117857,-54.22251277636765,87.57236498015025C-81.48560342861752,75.83260519421009,-172.38968075620133,165.1247788168883,-202.69637572918083,153.06919764033117C-225.56899812637778,143.97078699951436,-234.05996450321956,97.17324083108849,-238.53275950685912,67.86842153787661C-242.9362462928612,39.01769522047671,-248.92312778893253,-3.18499542712616,-230.014594724153,-21.313991036022657C-204.01500103029616,-46.24170585632187,-82.41854159129544,-13.968470039887942,-60.871103812144234,-30.31020819280462C-52.09880093150006,-36.963188382044116,-55.958068463331635,-47.9268126882428,-51.8745645607849,-56.90368662599076C-47.27692749599414,-67.01079300500123,-39.66874120783172,-72.60290055357986,-33.956716621592385,-87.65238956400944C-21.37310158516813,-120.80647938679597,-29.680329247097085,-233.05442748686647,0,-257C22.46976524457867,-275.12821510629874,68.93563043391231,-265.2662899345743,98.98021653527992,-255.4973908567935"
                        stroke="#bee5a0"
                        fill="#bee5a0"
                        fill-opacity="0.5"
                    />
                    <g id="dots">
                        <circle cx="1.573671136904349e-14" cy="-257" r="1" stroke="none" fill="#bee5a0" />
                        <circle cx="98.98021653527994" cy="-255.4973908567935" r="1" stroke="none" fill="#bee5a0" />
                        <circle cx="180.55043249727734" cy="-198.05438981513663" r="1" stroke="none" fill="#bee5a0" />
                        <circle cx="213.9440266338599" cy="-106.53146703059264" r="1" stroke="none" fill="#bee5a0" />
                        <circle cx="227.02739219526788" cy="-21.037185957632843" r="1" stroke="none" fill="#bee5a0" />
                        <circle cx="167.3576619120705" cy="47.617360272542435" r="1" stroke="none" fill="#bee5a0" />
                        <circle cx="184.34197950173532" cy="139.2086010036082" r="1" stroke="none" fill="#bee5a0" />
                        <circle cx="73.70050280282979" cy="119.03039900214598" r="1" stroke="none" fill="#bee5a0" />
                        <circle cx="42.997387169077456" cy="230.01570532603301" r="1" stroke="none" fill="#bee5a0" />
                        <circle cx="-29.399922850651233" cy="157.2756959494243" r="1" stroke="none" fill="#bee5a0" />
                        <circle cx="-54.222512776367665" cy="87.57236498015025" r="1" stroke="none" fill="#bee5a0" />
                        <circle cx="-202.69637572918083" cy="153.06919764033114" r="1" stroke="none" fill="#bee5a0" />
                        <circle cx="-238.53275950685912" cy="67.8684215378766" r="1" stroke="none" fill="#bee5a0" />
                        <circle cx="-230.014594724153" cy="-21.313991036022674" r="1" stroke="none" fill="#bee5a0" />
                        <circle cx="-60.871103812144234" cy="-30.310208192804623" r="1" stroke="none" fill="#bee5a0" />
                        <circle cx="-51.8745645607849" cy="-56.90368662599076" r="1" stroke="none" fill="#bee5a0" />
                        <circle cx="-33.95671662159238" cy="-87.65238956400944" r="1" stroke="none" fill="#bee5a0" />
                    </g>
                </g>
                <g id="3">
                    <path
                        d="M81.27937489210942,-209.80625161598005C111.39652605149548,-205.51278903023675,155.34489805414597,-209.96192469039119,174.48717170445832,-191.40330956015072C193.75238293226778,-172.72550528720492,182.13943081409937,-125.53433399158776,196.04076080675864,-97.61669991506189C209.94209079941785,-69.69906583853594,259.7974066792716,-47.52470337686407,257.89515166041394,-23.89750510099522C255.84322793314234,1.5886722362145773,181.81927666392497,19.314455082338775,173.12861577110743,49.25933821297492C164.50113459770287,78.98652681641906,216.99466773655706,132.87927180544017,205.09042741102158,154.87710154946888C193.96878501851356,175.4287696218587,138.8534973095424,165.42615000024986,112.65648285575412,181.94646704613743C86.29594435816824,198.56990534856837,73.08108143614704,249.43143351607452,47.591125114491724,254.59003281813057C22.206386393474194,259.727338421823,-16.20656675332817,232.10160853932445,-39.87364536619572,213.3051626314067C-61.84520199805673,195.8553040113829,-67.71908702839632,159.28415963327873,-91.59919634065992,147.93778161695286C-118.5686358577815,135.1235414621748,-169.90559948871854,162.80954768660268,-197.90827236549939,149.4533898220556C-224.63221236773188,136.70713652676898,-253.2017095804222,101.4410361207652,-257.7692723703155,73.34168133931827C-262.41013400945087,44.79139671526839,-243.00665291518953,3.9321450450408864,-224.0401896663828,-20.76038087924285C-205.76489267012212,-44.55307427359732,-163.03898801103858,-51.24165845183306,-147.70194307358526,-73.54682870312885C-134.2063953716196,-93.17384879431543,-145.7805828000065,-132.73444629254388,-130.69695486743208,-143.3677299408079C-114.90788834721155,-154.49831626932922,-73.56544280391336,-125.00890152561455,-52.380041597137186,-135.2084732636316C-28.850943715835637,-146.53640231386828,-23.772840956547572,-205.32645713228686,0,-217C21.789635954514377,-227.69969928507132,53.36852447713195,-213.78518678680004,81.27937489210942,-209.80625161598005"
                        stroke="#f44da1"
                        fill="#f44da1"
                        fill-opacity="0.5"
                    />
                    <g id="dots">
                        <circle cx="1.3287417770748783e-14" cy="-217" r="1" stroke="none" fill="#f44da1" />
                        <circle cx="81.27937489210943" cy="-209.80625161598005" r="1" stroke="none" fill="#f44da1" />
                        <circle cx="174.48717170445832" cy="-191.40330956015072" r="1" stroke="none" fill="#f44da1" />
                        <circle cx="196.04076080675864" cy="-97.61669991506187" r="1" stroke="none" fill="#f44da1" />
                        <circle cx="257.89515166041394" cy="-23.897505100995204" r="1" stroke="none" fill="#f44da1" />
                        <circle cx="173.12861577110743" cy="49.25933821297493" r="1" stroke="none" fill="#f44da1" />
                        <circle cx="205.09042741102155" cy="154.87710154946888" r="1" stroke="none" fill="#f44da1" />
                        <circle cx="112.6564828557541" cy="181.94646704613743" r="1" stroke="none" fill="#f44da1" />
                        <circle cx="47.59112511449171" cy="254.59003281813057" r="1" stroke="none" fill="#f44da1" />
                        <circle cx="-39.87364536619573" cy="213.3051626314067" r="1" stroke="none" fill="#f44da1" />
                        <circle cx="-91.59919634065993" cy="147.93778161695286" r="1" stroke="none" fill="#f44da1" />
                        <circle cx="-197.90827236549939" cy="149.45338982205558" r="1" stroke="none" fill="#f44da1" />
                        <circle cx="-257.7692723703155" cy="73.34168133931826" r="1" stroke="none" fill="#f44da1" />
                        <circle cx="-224.0401896663828" cy="-20.760380879242863" r="1" stroke="none" fill="#f44da1" />
                        <circle cx="-147.70194307358526" cy="-73.54682870312887" r="1" stroke="none" fill="#f44da1" />
                        <circle cx="-130.69695486743208" cy="-143.3677299408079" r="1" stroke="none" fill="#f44da1" />
                        <circle cx="-52.38004159713718" cy="-135.2084732636316" r="1" stroke="none" fill="#f44da1" />
                    </g>
                </g>
                <g id="4">
                    <path
                        d="M97.89649153671846,-252.6999741685804C126.76052407130108,-242.52315539208354,149.4225966225872,-212.19087691239272,173.1397804171652,-189.9252917257094C196.74557179101163,-167.7642812412517,229.8880427079938,-147.41524047165348,239.90376208315672,-119.45787934811227C249.97286669409255,-91.35150143813117,246.91146797355265,-48.61926867915694,233.00179725303806,-21.590796114412672C218.77547909968823,6.052967539750517,161.38801457840881,16.61289025810736,153.89210290765104,43.78607841153326C146.3057091113283,71.28727040631826,200.0876684451788,123.7402402251064,189.1300828654168,142.82440882188374C178.8929009593521,160.65389361386653,123.73899500771526,145.80259656139353,98.96924662094288,159.84082151716748C74.99421494843803,173.42864173580816,62.14366798350918,223.69803078226107,41.89489006217804,224.1178667279296C19.936812422966188,224.57314310690606,-10.058596619124785,174.4478769912704,-28.2974257437518,151.37785735132087C-42.542675322495384,133.3592561948545,-43.18922423739833,105.66620140391638,-61.59256305665063,99.47540488036485C-89.83146263112572,89.97597203116392,-166.96223894204567,160.63625188885587,-197.90827236549939,149.4533898220556C-222.5997134224396,140.53072836842253,-236.63600265439007,98.21479781232044,-244.30371336589604,69.51039947830911C-251.95839685106932,40.8547691153268,-261.7864540287167,-3.6128526023359315,-243.95487319228346,-22.605748068508877C-219.34787077265494,-48.81532695996472,-89.1428733095306,-14.677868121978722,-68.92757343433979,-34.321853394793465C-59.57677251880461,-43.408386694219075,-72.21086761174942,-67.08727096598281,-65.34847743371604,-71.68386497040395C-57.875264157422535,-76.68960297835493,-33.53276871139913,-51.70163814708026,-22.758224969790643,-58.74575045247442C-0.28792737808318647,-73.4362379169567,-29.968394737351144,-223.90064793627556,0,-251C21.31233067356095,-270.27198160872825,69.0441896947991,-262.87265696258015,97.89649153671846,-252.6999741685804"
                        stroke="#d6428d"
                        fill="#d6428d"
                        fill-opacity="0.5"
                    />
                    <g id="dots">
                        <circle cx="1.5369317329299283e-14" cy="-251" r="1" stroke="none" fill="#d6428d" />
                        <circle cx="97.89649153671847" cy="-252.6999741685804" r="1" stroke="none" fill="#d6428d" />
                        <circle cx="173.1397804171652" cy="-189.9252917257094" r="1" stroke="none" fill="#d6428d" />
                        <circle cx="239.90376208315672" cy="-119.45787934811226" r="1" stroke="none" fill="#d6428d" />
                        <circle cx="233.0017972530381" cy="-21.590796114412655" r="1" stroke="none" fill="#d6428d" />
                        <circle cx="153.89210290765104" cy="43.78607841153327" r="1" stroke="none" fill="#d6428d" />
                        <circle cx="189.13008286541677" cy="142.82440882188374" r="1" stroke="none" fill="#d6428d" />
                        <circle cx="98.96924662094285" cy="159.84082151716748" r="1" stroke="none" fill="#d6428d" />
                        <circle cx="41.89489006217803" cy="224.1178667279296" r="1" stroke="none" fill="#d6428d" />
                        <circle cx="-28.297425743751813" cy="151.37785735132087" r="1" stroke="none" fill="#d6428d" />
                        <circle cx="-61.59256305665065" cy="99.47540488036485" r="1" stroke="none" fill="#d6428d" />
                        <circle cx="-197.90827236549939" cy="149.45338982205558" r="1" stroke="none" fill="#d6428d" />
                        <circle cx="-244.30371336589604" cy="69.5103994783091" r="1" stroke="none" fill="#d6428d" />
                        <circle cx="-243.95487319228346" cy="-22.605748068508895" r="1" stroke="none" fill="#d6428d" />
                        <circle cx="-68.92757343433979" cy="-34.32185339479347" r="1" stroke="none" fill="#d6428d" />
                        <circle cx="-65.34847743371604" cy="-71.68386497040395" r="1" stroke="none" fill="#d6428d" />
                        <circle cx="-22.75822496979064" cy="-58.74575045247442" r="1" stroke="none" fill="#d6428d" />
                    </g>
                </g>
                <g id="5">
                    <path
                        d="M95.72904153959554,-247.1051407921543C123.88629530469366,-243.96919694108695,149.15460695265674,-211.14463876914397,173.1397804171652,-189.9252917257094C197.22859609906487,-168.61425386409374,231.28106505192966,-147.37959915673693,239.90376208315672,-119.45787934811227C248.65394591538592,-91.12333618224902,233.73973043225314,-50.596360018723914,224.04018966638276,-20.760380879242952C215.2124543410762,6.393907490931344,190.8443044451511,25.85331909434121,186.59417477552688,53.090620073984084C181.89398276891012,83.21218207273876,217.28330067426154,137.73757148307445,202.69637572918086,153.0691976403311C187.0481816554631,169.51627353039723,113.62424193710662,125.5572672883873,86.8613068747637,140.28582739538635C62.0852043246714,153.9209654987428,63.365237923954915,225.0549529404902,42.99738716907746,230.01570532603301C23.23414499625859,234.82920047261308,-4.757013869133181,178.87280083040304,-32.52366465353291,173.98623864405062C-60.616364014648184,169.04229623354857,-99.87896903444468,209.02755851613858,-124.76442260193333,201.50146116791854C-148.24665107218627,194.39974060088196,-159.11596737114937,156.6369011984114,-179.55387613805388,135.5927931853327C-201.25102399924938,113.25209637656178,-243.1686501461572,98.02819430038394,-251.9983185112786,71.69970339888577C-260.76424204153074,45.56128818715001,-243.13128236846043,7.1794164177939015,-233.0017972530381,-21.590796114412562C-223.45657059373974,-48.70157188701177,-213.8949497890524,-79.26115350087197,-194.2504342240485,-96.72522320350886C-174.61922507313835,-114.17746343941972,-135.18604345578757,-109.63220740178929,-115.20195506356126,-126.37052484473273C-95.9236896894519,-142.51765746583695,-94.60419732404324,-180.89746292769073,-75.13826656692783,-193.95422371610601C-55.9997128452461,-206.7913965643085,-26.033691262979072,-197.50924052085162,0,-205C30.54972342449878,-213.79017224318258,66.37701570451702,-250.3741494000881,95.72904153959554,-247.1051407921543"
                        stroke="#feeda1"
                        fill="#feeda1"
                        fill-opacity="0.5"
                    />
                    <g id="dots">
                        <circle cx="1.255262969126037e-14" cy="-205" r="1" stroke="none" fill="#feeda1" />
                        <circle cx="95.72904153959556" cy="-247.1051407921543" r="1" stroke="none" fill="#feeda1" />
                        <circle cx="173.1397804171652" cy="-189.9252917257094" r="1" stroke="none" fill="#feeda1" />
                        <circle cx="239.90376208315672" cy="-119.45787934811226" r="1" stroke="none" fill="#feeda1" />
                        <circle cx="224.0401896663828" cy="-20.760380879242938" r="1" stroke="none" fill="#feeda1" />
                        <circle cx="186.59417477552688" cy="53.09062007398409" r="1" stroke="none" fill="#feeda1" />
                        <circle cx="202.69637572918083" cy="153.0691976403311" r="1" stroke="none" fill="#feeda1" />
                        <circle cx="86.86130687476367" cy="140.28582739538635" r="1" stroke="none" fill="#feeda1" />
                        <circle cx="42.997387169077456" cy="230.01570532603301" r="1" stroke="none" fill="#feeda1" />
                        <circle cx="-32.523664653532926" cy="173.98623864405062" r="1" stroke="none" fill="#feeda1" />
                        <circle cx="-124.76442260193336" cy="201.50146116791854" r="1" stroke="none" fill="#feeda1" />
                        <circle cx="-179.55387613805388" cy="135.59279318533268" r="1" stroke="none" fill="#feeda1" />
                        <circle cx="-251.9983185112786" cy="71.69970339888576" r="1" stroke="none" fill="#feeda1" />
                        <circle cx="-233.0017972530381" cy="-21.590796114412576" r="1" stroke="none" fill="#feeda1" />
                        <circle cx="-194.2504342240485" cy="-96.72522320350888" r="1" stroke="none" fill="#feeda1" />
                        <circle cx="-115.20195506356126" cy="-126.37052484473273" r="1" stroke="none" fill="#feeda1" />
                        <circle cx="-75.13826656692783" cy="-193.95422371610601" r="1" stroke="none" fill="#feeda1" />
                    </g>
                </g>
                <g id="6">
                    <path
                        d="M84.5305498877938,-218.19850168061927C114.79109075117508,-214.98661932126345,155.2358986235264,-212.40927908475018,176.508258635398,-193.62033631181268C197.74954421617707,-174.85884022119777,200.7439581012401,-134.5966239488287,212.15370005114977,-105.63999031903958C223.1962686336764,-77.61520113626793,247.29455571589196,-48.872371445514766,243.95487319228346,-22.605748068508994C240.52235100623378,4.391059818717516,196.30735012241013,25.094833100489762,189.47965170504534,53.91160904420033C182.35885738340636,83.96541663271937,216.92630066811273,130.10622458838773,205.09042741102158,154.87710154946888C193.80540517897356,178.49512204877146,151.8933631074873,187.52759925778014,124.7644226019333,201.50146116791856C98.334364260926,215.11533545315004,72.67426765761881,230.81524893958317,44.46738331161003,237.87949012350424C15.930124694134541,245.02647151743832,-26.931503768113245,259.3935978664555,-45.56988041850939,243.77732872160763C-69.21266040165428,223.96809197987855,-35.867130579946185,114.95030692406615,-61.59256305665063,99.47540488036485C-88.48284841478079,83.29979608463097,-182.5883873489727,171.89365100208704,-209.08051354742275,157.8902747313652C-229.55948327919,147.06537088474835,-224.52342081839376,95.95400905463498,-229.87632871830374,65.40545462722787C-235.04650942387678,35.89970753855052,-254.5435486866575,-1.9849452817838216,-240.96767066339837,-22.328942990118975C-224.43991089761306,-47.096453881346626,-131.46568622818862,-33.39109397642279,-114.58090129344797,-57.05450953939693C-101.90270535653922,-74.82254272450487,-130.39630688308057,-122.54413337580907,-119.2441289254406,-130.80457834805668C-107.23505478763553,-139.69972837702673,-58.54290406579388,-91.51016186063768,-39.014099948212525,-100.70700077567042C-15.92109973176319,-111.58235196342171,-24.155152498951104,-195.85009529789966,0,-214C20.300894273281934,-229.25385925191253,55.99927003140765,-221.22683864506087,84.5305498877938,-218.19850168061927"
                        stroke="#f0f8a9"
                        fill="#f0f8a9"
                        fill-opacity="0.5"
                    />
                    <g id="dots">
                        <circle cx="1.310372075087668e-14" cy="-214" r="1" stroke="none" fill="#f0f8a9" />
                        <circle cx="84.53054988779381" cy="-218.19850168061927" r="1" stroke="none" fill="#f0f8a9" />
                        <circle cx="176.508258635398" cy="-193.62033631181268" r="1" stroke="none" fill="#f0f8a9" />
                        <circle cx="212.15370005114977" cy="-105.63999031903957" r="1" stroke="none" fill="#f0f8a9" />
                        <circle cx="243.95487319228346" cy="-22.605748068508976" r="1" stroke="none" fill="#f0f8a9" />
                        <circle cx="189.47965170504534" cy="53.91160904420034" r="1" stroke="none" fill="#f0f8a9" />
                        <circle cx="205.09042741102155" cy="154.87710154946888" r="1" stroke="none" fill="#f0f8a9" />
                        <circle cx="124.76442260193328" cy="201.50146116791856" r="1" stroke="none" fill="#f0f8a9" />
                        <circle cx="44.467383311610014" cy="237.87949012350424" r="1" stroke="none" fill="#f0f8a9" />
                        <circle cx="-45.56988041850941" cy="243.77732872160763" r="1" stroke="none" fill="#f0f8a9" />
                        <circle cx="-61.59256305665065" cy="99.47540488036485" r="1" stroke="none" fill="#f0f8a9" />
                        <circle cx="-209.08051354742275" cy="157.89027473136517" r="1" stroke="none" fill="#f0f8a9" />
                        <circle cx="-229.87632871830374" cy="65.40545462722785" r="1" stroke="none" fill="#f0f8a9" />
                        <circle cx="-240.96767066339837" cy="-22.32894299011899" r="1" stroke="none" fill="#f0f8a9" />
                        <circle cx="-114.58090129344797" cy="-57.05450953939694" r="1" stroke="none" fill="#f0f8a9" />
                        <circle cx="-119.2441289254406" cy="-130.80457834805668" r="1" stroke="none" fill="#f0f8a9" />
                        <circle cx="-39.01409994821252" cy="-100.70700077567042" r="1" stroke="none" fill="#f0f8a9" />
                    </g>
                </g>
                <g id="7">
                    <path
                        d="M80.19564989354797,-207.008834927767C107.93950687393679,-201.17177964566122,148.11495145557353,-198.50095028397388,163.03434576246684,-178.8401579673995C178.59552520665082,-158.33362057320448,157.25545176864554,-110.66928028215025,168.29069877475172,-83.7988108859892C178.66671986903805,-58.53353525476225,209.81556684640813,-45.50511875504553,224.04018966638276,-20.760380879242952C239.40991618011898,5.976345895059988,260.64594046400015,44.941004235612944,254.88379544079706,72.52069236910197C249.18583366968355,99.7931764893467,212.95879568530736,122.11792461201067,190.72611731997728,144.02967809464226C169.51000498184078,164.93953950558267,150.21890014100975,197.03703076521168,124.7644226019333,201.50146116791856C97.45674183241859,206.29092267101487,58.7703032198184,158.8287219744678,30.869918993183823,165.1394807468955C1.4207528356534391,171.80055688691155,-16.856599996384443,239.13097890669712,-46.1211289719591,246.72624802065934C-72.8428366785391,253.66155736343094,-119.48318497712225,239.86445154295092,-135.29306585948046,218.50580388251083C-152.85891180252455,194.77490311565523,-126.99721749165082,133.1935272297242,-136.46094586492094,103.05052282085286C-143.56710189978543,80.4166427853641,-160.99513396973032,68.54386537514965,-173.12861577110743,49.25933821297496C-186.5572204055585,27.916388591228046,-203.03553732780074,6.078140666680235,-213.0871137271374,-19.74542892514653C-224.30850624281098,-48.574380627172594,-242.65585148379802,-89.31710856967831,-234.5327823350263,-116.7834492134531C-226.6025424435558,-143.59778087267753,-190.63501976999245,-162.44162857870631,-167.07651962434616,-183.2742114707235C-143.63407621545363,-204.00416636971678,-121.07640367369699,-236.16197920481622,-93.56159154247264,-241.51030741572816C-65.50412317192624,-246.9641171272862,-30.26272349497653,-219.7092796028569,0,-214C27.49499074159781,-208.81287301032899,53.58425213279645,-212.60763108554025,80.19564989354797,-207.008834927767"
                        stroke="#438fb4"
                        fill="#438fb4"
                        fill-opacity="0.5"
                    />
                    <g id="dots">
                        <circle cx="1.310372075087668e-14" cy="-214" r="1" stroke="none" fill="#438fb4" />
                        <circle cx="80.19564989354798" cy="-207.008834927767" r="1" stroke="none" fill="#438fb4" />
                        <circle cx="163.03434576246684" cy="-178.8401579673995" r="1" stroke="none" fill="#438fb4" />
                        <circle cx="168.29069877475172" cy="-83.7988108859892" r="1" stroke="none" fill="#438fb4" />
                        <circle cx="224.0401896663828" cy="-20.760380879242938" r="1" stroke="none" fill="#438fb4" />
                        <circle cx="254.88379544079706" cy="72.52069236910198" r="1" stroke="none" fill="#438fb4" />
                        <circle cx="190.72611731997725" cy="144.02967809464226" r="1" stroke="none" fill="#438fb4" />
                        <circle cx="124.76442260193328" cy="201.50146116791856" r="1" stroke="none" fill="#438fb4" />
                        <circle cx="30.869918993183813" cy="165.1394807468955" r="1" stroke="none" fill="#438fb4" />
                        <circle cx="-46.12112897195912" cy="246.72624802065934" r="1" stroke="none" fill="#438fb4" />
                        <circle cx="-135.2930658594805" cy="218.50580388251083" r="1" stroke="none" fill="#438fb4" />
                        <circle cx="-136.46094586492094" cy="103.05052282085285" r="1" stroke="none" fill="#438fb4" />
                        <circle cx="-173.12861577110743" cy="49.25933821297495" r="1" stroke="none" fill="#438fb4" />
                        <circle cx="-213.0871137271374" cy="-19.745428925146545" r="1" stroke="none" fill="#438fb4" />
                        <circle cx="-234.5327823350263" cy="-116.78344921345311" r="1" stroke="none" fill="#438fb4" />
                        <circle cx="-167.07651962434616" cy="-183.2742114707235" r="1" stroke="none" fill="#438fb4" />
                        <circle cx="-93.56159154247263" cy="-241.51030741572816" r="1" stroke="none" fill="#438fb4" />
                    </g>
                </g>
                <g id="8">
                    <path
                        d="M80.19564989354797,-207.008834927767C110.03085304483014,-201.47834368673784,153.38468028595258,-207.93444504993863,173.1397804171652,-189.9252917257094C192.89488054837787,-171.91613840148014,185.75175487141766,-126.93698207399466,198.72625068082385,-98.95391498239151C211.49089865801326,-71.42344243120147,244.77136155818647,-50.61028067681051,249.92927825005364,-23.159358225288805C255.06848800906465,4.192004153083406,242.30037190841205,38.99581913707729,229.87632871830374,65.40545462722781C217.76162495347342,91.15753111349233,194.50299808798243,110.8188158075032,177.1598244562132,133.7848892761949C159.81665082444388,156.75096274488658,147.88689072540325,186.36228174016827,125.81728692768802,203.2018954393778C103.55791396886222,220.18630735945334,71.98168564872404,231.48587001583468,43.91613475816032,234.93057082445253C16.065929522286737,238.3488406054473,-24.108901716996296,241.87815996906312,-41.894890062177986,224.1178667279296C-63.76694031435703,202.27741464145657,-34.37956585574414,108.30014579809331,-58.4339700793865,94.37410206598716C-85.08722319026421,78.9434821689389,-184.16407093724015,170.44359862840895,-206.68646186558203,156.08237082222743C-224.12154161619904,144.96502751199893,-203.21123440586595,90.10617410690806,-210.63981585484737,59.932194825786205C-217.89977593272812,30.443134703576725,-259.3314552867849,-4.168270352923071,-249.92927825005367,-23.15935822528869C-238.09141337789353,-47.07019622909449,-140.5075775157599,-42.92809069895009,-107.41959496260746,-53.488602693184625C-88.86089844930675,-59.41188123732778,-79.62846561980517,-71.87890220922594,-65.34847743371604,-71.68386497040395C-50.35069590337071,-71.47902405176903,-30.65798437771098,-44.10056663161033,-19.507049974106263,-50.35350038783521C1.1046568525240883,-61.91160240195736,-25.703444150681566,-203.0053951337995,0,-222C17.663840051565163,-235.05341261787095,52.47425081062948,-212.14749458561369,80.19564989354797,-207.008834927767"
                        stroke="#77c6a7"
                        fill="#77c6a7"
                        fill-opacity="0.5"
                    />
                    <g id="dots">
                        <circle cx="1.359357947053562e-14" cy="-222" r="1" stroke="none" fill="#77c6a7" />
                        <circle cx="80.19564989354798" cy="-207.008834927767" r="1" stroke="none" fill="#77c6a7" />
                        <circle cx="173.1397804171652" cy="-189.9252917257094" r="1" stroke="none" fill="#77c6a7" />
                        <circle cx="198.72625068082385" cy="-98.9539149823915" r="1" stroke="none" fill="#77c6a7" />
                        <circle cx="249.92927825005367" cy="-23.159358225288788" r="1" stroke="none" fill="#77c6a7" />
                        <circle cx="229.87632871830374" cy="65.40545462722783" r="1" stroke="none" fill="#77c6a7" />
                        <circle cx="177.15982445621316" cy="133.7848892761949" r="1" stroke="none" fill="#77c6a7" />
                        <circle cx="125.81728692768799" cy="203.2018954393778" r="1" stroke="none" fill="#77c6a7" />
                        <circle cx="43.916134758160304" cy="234.93057082445253" r="1" stroke="none" fill="#77c6a7" />
                        <circle cx="-41.89489006217801" cy="224.1178667279296" r="1" stroke="none" fill="#77c6a7" />
                        <circle cx="-58.43397007938651" cy="94.37410206598716" r="1" stroke="none" fill="#77c6a7" />
                        <circle cx="-206.68646186558203" cy="156.0823708222274" r="1" stroke="none" fill="#77c6a7" />
                        <circle cx="-210.63981585484737" cy="59.93219482578619" r="1" stroke="none" fill="#77c6a7" />
                        <circle cx="-249.92927825005367" cy="-23.159358225288706" r="1" stroke="none" fill="#77c6a7" />
                        <circle cx="-107.41959496260746" cy="-53.48860269318463" r="1" stroke="none" fill="#77c6a7" />
                        <circle cx="-65.34847743371604" cy="-71.68386497040395" r="1" stroke="none" fill="#77c6a7" />
                        <circle cx="-19.50704997410626" cy="-50.35350038783521" r="1" stroke="none" fill="#77c6a7" />
                    </g>
                </g>
                <g id="9">
                    <path
                        d="M72.2483332374306,-186.49444588087115C102.56663082506203,-188.66501528788734,153.04436848441557,-203.87493607209154,171.11869348622554,-187.7082649740474C189.12637906008442,-171.6011998482174,167.8618720257149,-117.69044399232325,180.8229848537226,-90.03914786686074C193.52350773273207,-62.94379550507736,251.64072281061507,-40.626536281160476,246.94207572116855,-22.8825531468989C240.61922728982307,0.9950681748381857,91.35914455091893,-4.428852304256289,82.71700531286244,23.535017146199127C74.9635153763174,48.62343268759526,173.66420005516358,101.77022730164919,170.77568663797126,128.96381218516083C168.60233720217923,149.4245661536123,128.75057140714628,157.33679997025808,109.49788987848999,176.84516423175975C87.51668543218246,199.1182872046216,70.48851397273464,256.67960598352613,48.142373667941435,257.53895211718225C23.85830197447472,258.4728235972038,-0.9550278255622111,176.1831021584068,-31.42116754663349,168.0884000459472C-58.81883037946345,160.808977013039,-98.02704082484905,205.63355970789544,-123.18512611330127,198.9508097607297C-146.73096295823683,192.6963218643995,-161.00851600073267,157.3243246001455,-179.55387613805388,135.5927931853327C-198.50675254920174,113.38373247795637,-230.90576854576221,92.64699922149208,-235.64728257734066,67.04743256766037C-240.44905959882064,41.12250434862591,-212.76881186625226,9.466452548961739,-207.11270866936718,-19.191818768366723C-201.7617844791472,-46.303812998993756,-212.9010957400369,-78.24481794571378,-201.411740554889,-100.29113004972118C-189.91377425320778,-122.3539655668879,-160.36502947440096,-137.41081665787252,-138.1076069475442,-151.49682803023515C-116.84799049684031,-164.95135982677803,-94.42207147747183,-179.53080173181576,-71.16460823886915,-183.6970291926581C-48.350581144645396,-187.78382168577036,-23.786403632886312,-176.56185894599108,0,-177C24.016648320869486,-177.44238211759424,46.22108056118323,-184.63108405310183,72.2483332374306,-186.49444588087115"
                        stroke="#5e4fa2"
                        fill="#5e4fa2"
                        fill-opacity="0.5"
                    />
                    <g id="dots">
                        <circle cx="1.0838124172454076e-14" cy="-177" r="1" stroke="none" fill="#5e4fa2" />
                        <circle cx="72.2483332374306" cy="-186.49444588087115" r="1" stroke="none" fill="#5e4fa2" />
                        <circle cx="171.11869348622554" cy="-187.7082649740474" r="1" stroke="none" fill="#5e4fa2" />
                        <circle cx="180.8229848537226" cy="-90.03914786686073" r="1" stroke="none" fill="#5e4fa2" />
                        <circle cx="246.94207572116858" cy="-22.882553146898882" r="1" stroke="none" fill="#5e4fa2" />
                        <circle cx="82.71700531286244" cy="23.535017146199134" r="1" stroke="none" fill="#5e4fa2" />
                        <circle cx="170.77568663797126" cy="128.96381218516083" r="1" stroke="none" fill="#5e4fa2" />
                        <circle cx="109.49788987848997" cy="176.84516423175975" r="1" stroke="none" fill="#5e4fa2" />
                        <circle cx="48.14237366794142" cy="257.53895211718225" r="1" stroke="none" fill="#5e4fa2" />
                        <circle cx="-31.421167546633505" cy="168.0884000459472" r="1" stroke="none" fill="#5e4fa2" />
                        <circle cx="-123.1851261133013" cy="198.9508097607297" r="1" stroke="none" fill="#5e4fa2" />
                        <circle cx="-179.55387613805388" cy="135.59279318533268" r="1" stroke="none" fill="#5e4fa2" />
                        <circle cx="-235.64728257734066" cy="67.04743256766035" r="1" stroke="none" fill="#5e4fa2" />
                        <circle cx="-207.11270866936718" cy="-19.191818768366737" r="1" stroke="none" fill="#5e4fa2" />
                        <circle cx="-201.411740554889" cy="-100.29113004972118" r="1" stroke="none" fill="#5e4fa2" />
                        <circle cx="-138.1076069475442" cy="-151.49682803023515" r="1" stroke="none" fill="#5e4fa2" />
                        <circle cx="-71.16460823886914" cy="-183.6970291926581" r="1" stroke="none" fill="#5e4fa2" />
                    </g>
                </g>
            </g>
        </g>
        <text x="5" y="5" style="font-family: Arial, sans-serif; font-size: 12px; fill: black; font-weight: bold; dominant-baseline: hanging;" />
    </g>
    <g id="grid"><rect x="0" y="0" width="805" height="600" fill="none" stroke="#ccc" /></g>
</svg>
